<?xml version="1.0" encoding="utf-8"?>
<!-- Generator: Adobe Illustrator 21.1.0, SVG Export Plug-In . SVG Version: 6.00 Build 0)  -->
<svg version="1.1" id="Layer_1" xmlns="http://www.w3.org/2000/svg" xmlns:xlink="http://www.w3.org/1999/xlink" x="0px" y="0px"
	 viewBox="0 0 400 500" style="enable-background:new 0 0 400 500;" xml:space="preserve">
<style type="text/css">
	.st0{enable-background:new    ;}
	.st1{fill:none;stroke:#000000;stroke-width:0.5669;stroke-miterlimit:22.9256;}
	.st2{font-family:'BodoniSvtyTwoITCTT-Book';}
	.st3{font-size:24.0001px;}
	.st4{fill:#FFFFFF;}
	.st5{stroke:#000000;stroke-width:0.5669;stroke-miterlimit:22.9256;}
	.st6{fill:#FFFFFF;stroke:#000000;stroke-width:0.5669;stroke-miterlimit:22.9256;}
</style>
<text transform="matrix(1 0 0 1 791.6476 639.6371)" style="font-family:'ArialMT'; font-size:483.7779px;">D</text>
<path class="st1" d="M-522.2,438.8c19,11.5,102.7,82.8,104.3,81c75.4-83.9,208.7-73.7,86.1-38.2C-390,498.4-463,587.4-463,586.7
	c0-67.3-5.6-104.2-53.4-157.4c-3.2-3.6-7.7-3.2-12.1-3.2"/>
<rect x="-321.4" y="757.9" class="st1" width="90.9" height="101.4"/>
<g id="XMLID_1_">
	<g>
		<path class="st4" d="M181.1,269.7H123v-0.3h39.3C169.2,269.4,175.4,269.5,181.1,269.7z"/>
		<path d="M309.3,316.2c0,14.3-3.3,28.1-9.9,41.6s-15.7,24.3-27.2,32.3c-11.4,8-25.6,13-42.4,14.9c-10.5,1.1-35.9,1.8-76.2,2.1H47
			v-313h113.9c17.4,8.7,48.2,22.2,61.7,36.7c0.7,0.8,1.5,1.6,2.2,2.4H81v261h146v-46h-3.5c4.9-2.2,9.1-5.3,12.6-9.3
			c5.9-6.7,8.9-15.5,8.9-26.7c0-9.5-2.3-17.4-6.9-24c-4.5-6.6-11.2-11.4-19.8-14.4c-6.6-2.3-19-3.7-37.4-4.3h34.9v-38h-27.3
			c4.4-0.2,7.6-0.4,9.7-0.6c10.8-1.2,19.3-5,25.5-11.1c6.2-6.2,9.2-14.2,9.2-24.3c0-7.1-1.5-13.2-4.3-18.3h0.4v-38.4
			c4,5.8,7.7,12.2,10.7,17.4c2.8,4.7,5.4,8.2,9,12.7c1.5,2,5.5,8.1,7.6,9.3c0.3,0.2,0.6,0.2,0.9,0.3c2.3,0.4,6-1.5,7.5-2.1
			c5-2,9.3-3.3,14-5.7c2.9-1.4,5.5-3,8.2-4.6c1.7-0.9,3.3-1.9,5-2.8c0.4-0.2,0.9-0.5,1.3-0.7c0.4,3.3,0.7,6.8,0.7,10.3
			c0,14.6-3.9,28-11.8,40.2c-7.9,12.2-18.6,21.3-32.1,27.5c19,5.6,33.6,15.1,43.9,28.5C304.2,282.4,309.3,298.1,309.3,316.2z"/>
		<path d="M284.8,137c-7.7,4.7-11.8,12.5-15.8,18.8c-3.3,5.3-5.9,9.8-8.2,15.5c-0.4,0.9-2.5,5.4-3.3,5.7c-1.9,0.6-1.4-7.8-1.4-8.3
			c0-4.2,0.1-8.3,0.3-12.5c0.3-7.7-1.8-21.3-6.4-28.9c-7.3-12.2-22.9-16.3-39.2-20.9c-10.5-3-20.8-5.8-31.2-9.1
			c-1-0.3-4.7-1.6-9.2-3.1h1.8c24.8,0,43.3,1,55.4,3.1c12.2,2.1,23.1,6.4,32.7,12.9c9.6,6.6,17.6,15.2,24,26.1
			C284.5,136.5,284.7,136.7,284.8,137z"/>
		<path d="M170.4,94.2h-9.5c-5.9-2.9-10.2-5.3-11.9-7C149.3,87.1,161.5,91.2,170.4,94.2z"/>
		<path d="M389.4,154.1c-38.7-3.1-67.1-6.8-96.1,8.4c-1.2-9.2-4-17.7-8.5-25.5c4-2.5,9-4,15.4-4.2c13.8-0.1,64,12,81,15.9
			C387,150,410.9,155.9,389.4,154.1z"/>
		<path class="st4" d="M120.8,348.9c0.1,0,0.1-0.1,0.2-0.1c0.6-0.2,1.3-0.2,2-0.1v-0.4h-11.8v0.3c0.3-0.1,0.7-0.1,1.1-0.1
			c1.9,0,3.9,0.1,5.8,0.4C119,348.8,119.9,348.8,120.8,348.9z"/>
	</g>
	<g>
		<line class="st1" x1="81" y1="177.3" x2="81" y2="237.7"/>
		<line class="st1" x1="123" y1="232.1" x2="123" y2="231.7"/>
		<line class="st1" x1="123" y1="269.7" x2="123" y2="269.4"/>
		<line class="st1" x1="81" y1="348.3" x2="81" y2="269.7"/>
		<path class="st1" d="M120.8,348.9c0.1,0,0.1-0.1,0.2-0.1c0.6-0.2,1.3-0.2,2-0.1v-0.4h-11.8v0.3c0.3-0.1,0.7-0.1,1.1-0.1
			c1.9,0,3.9,0.1,5.8,0.4C119,348.8,119.9,348.8,120.8,348.9z"/>
		<path class="st1" d="M181.1,269.7h-69.9v-0.3h51.1C169.2,269.4,175.4,269.5,181.1,269.7z"/>
		<path class="st1" d="M284.8,137c-7.7,4.7-11.8,12.5-15.8,18.8c-3.3,5.3-5.9,9.8-8.2,15.5c-0.4,0.9-2.5,5.4-3.3,5.7
			c-1.9,0.6-1.4-7.8-1.4-8.3c0-4.2,0.1-8.3,0.3-12.5c0.3-7.7-1.8-21.3-6.4-28.9c-7.3-12.2-22.9-16.3-39.2-20.9
			c-10.5-3-20.8-5.8-31.2-9.1c-1-0.3-4.7-1.6-9.2-3.1h1.8c24.8,0,43.3,1,55.4,3.1c12.2,2.1,23.1,6.4,32.7,12.9
			c9.6,6.6,17.6,15.2,24,26.1C284.5,136.5,284.7,136.7,284.8,137z"/>
		<path class="st1" d="M111.2,269.4v0.3h69.9c-5.7-0.2-11.9-0.3-18.7-0.3H111.2z"/>
		<path class="st1" d="M309.3,316.2c0,14.3-3.3,28.1-9.9,41.6s-15.7,24.3-27.2,32.3c-11.4,8-25.6,13-42.4,14.9
			c-10.5,1.1-35.9,1.8-76.2,2.1H47v-313h113.9c17.4,8.7,48.2,22.2,61.7,36.7c0.7,0.8,1.5,1.6,2.2,2.4H81v261h146v-46h-3.5
			c4.9-2.2,9.1-5.3,12.6-9.3c5.9-6.7,8.9-15.5,8.9-26.7c0-9.5-2.3-17.4-6.9-24c-4.5-6.6-11.2-11.4-19.8-14.4
			c-6.6-2.3-19-3.7-37.4-4.3h34.9v-38h-27.3c4.4-0.2,7.6-0.4,9.7-0.6c10.8-1.2,19.3-5,25.5-11.1c6.2-6.2,9.2-14.2,9.2-24.3
			c0-7.1-1.5-13.2-4.3-18.3h0.4v-38.4c4,5.8,7.7,12.2,10.7,17.4c2.8,4.7,5.4,8.2,9,12.7c1.5,2,5.5,8.1,7.6,9.3
			c0.3,0.2,0.6,0.2,0.9,0.3c2.3,0.4,6-1.5,7.5-2.1c5-2,9.3-3.3,14-5.7c2.9-1.4,5.5-3,8.2-4.6c1.7-0.9,3.3-1.9,5-2.8
			c0.4-0.2,0.9-0.5,1.3-0.7c0.4,3.3,0.7,6.8,0.7,10.3c0,14.6-3.9,28-11.8,40.2c-7.9,12.2-18.6,21.3-32.1,27.5
			c19,5.6,33.6,15.1,43.9,28.5C304.2,282.4,309.3,298.1,309.3,316.2z"/>
		<path class="st1" d="M120.8,348.9c0.1,0,0.1-0.1,0.2-0.1c0.6-0.2,1.3-0.2,2-0.1v-0.4h-11.8v0.3c0.3-0.1,0.7-0.1,1.1-0.1
			c1.9,0,3.9,0.1,5.8,0.4C119,348.8,119.9,348.8,120.8,348.9z"/>
		<path class="st5" d="M233,195.6c0,10-3,18.1-9.2,24.3s-14.7,9.9-25.5,11.1c-2.1,0.2-5.3,0.5-9.7,0.6h-65.5v-54.4h105.6
			C231.5,182.4,233,188.5,233,195.6z"/>
		<path class="st5" d="M245.1,312.3c0,11.1-3,20-8.9,26.7c-3.6,4-7.8,7.1-12.6,9.3H111.2v-78.6h69.9c18.4,0.5,30.8,2,37.4,4.3
			c8.6,3,15.2,7.8,19.8,14.4C242.8,294.9,245.1,302.8,245.1,312.3z"/>
		<path class="st1" d="M170.4,94.2h-9.5c-5.9-2.9-10.2-5.3-11.9-7C149.3,87.1,161.5,91.2,170.4,94.2z"/>
		<path class="st6" d="M293.3,162.5c-0.4,0.2-0.9,0.5-1.3,0.7c-1.7,1-3.3,1.9-5,2.8c-2.7,1.6-5.3,3.1-8.2,4.6c-4.7,2.4-9,3.7-14,5.7
			c-1.5,0.6-5.2,2.5-7.5,2.1c-0.3-0.1-0.6-0.2-0.9-0.3c-2-1.2-6-7.3-7.6-9.3c-3.6-4.5-6.2-8-9-12.7c-3.1-5.2-6.7-11.6-10.7-17.4
			c-1.3-1.9-2.7-3.8-4.2-5.5c-0.7-0.9-1.4-1.7-2.2-2.4c-13.6-14.5-44.3-28-61.7-36.7h9.5c4.5,1.5,8.3,2.8,9.2,3.1
			c10.4,3.3,20.7,6.2,31.2,9.1c16.3,4.6,31.9,8.7,39.2,20.9c4.6,7.6,6.6,21.1,6.4,28.9c-0.2,4.2-0.2,8.3-0.3,12.5
			c0,0.5-0.5,8.9,1.4,8.3c0.8-0.3,2.9-4.8,3.3-5.7c2.4-5.7,4.9-10.1,8.2-15.5c4-6.3,8.1-14.1,15.8-18.8
			C289.3,144.8,292.2,153.3,293.3,162.5z"/>
		<path class="st1" d="M389.4,154.1c-38.7-3.1-67.1-6.8-96.1,8.4c-1.2-9.2-4-17.7-8.5-25.5c4-2.5,9-4,15.4-4.2
			c13.8-0.1,64,12,81,15.9C387,150,410.9,155.9,389.4,154.1z"/>
	</g>
</g>
</svg>
